<?xml version="1.0" encoding="UTF-8"?>
<svg version="1.1" xmlns="http://www.w3.org/2000/svg" width="160" height="160">
<path d="M0 0 C52.8 0 105.6 0 160 0 C160 52.8 160 105.6 160 160 C107.2 160 54.4 160 0 160 C0 107.2 0 54.4 0 0 Z " fill="#000000" transform="translate(0,0)"/>
<path d="M0 0 C2.45703125 2.203125 2.45703125 2.203125 4.8125 5.25 C5.23192871 5.78705566 5.65135742 6.32411133 6.08349609 6.87744141 C6.96001757 8.00552356 7.82840941 9.13996489 8.68896484 10.28027344 C9.97553741 11.96791165 11.30202498 13.61447707 12.64453125 15.2578125 C13.46308594 16.28648438 14.28164062 17.31515625 15.125 18.375 C16.24261719 19.77878906 16.24261719 19.77878906 17.3828125 21.2109375 C19.37747414 24.65100612 19.78278212 26.0860894 19 30 C17.20993714 32.88744263 15.04890836 35.38746372 12.8125 37.9375 C11.65039434 39.29911989 10.49021592 40.66238713 9.33203125 42.02734375 C8.76621338 42.68621582 8.20039551 43.34508789 7.61743164 44.02392578 C6.05774106 45.92945567 4.67367704 47.88578429 3.296875 49.92578125 C1 53 1 53 -2.5625 54.25 C-6 54 -6 54 -8.18164062 52.12133789 C-10.77090177 47.67669452 -10.57455394 43.86780254 -10.53125 38.80859375 C-10.5350769 37.82633316 -10.53890381 36.84407257 -10.54284668 35.83204651 C-10.54556328 33.76017224 -10.53821976 31.68826353 -10.52148438 29.61645508 C-10.50004865 26.44469893 -10.5213068 23.27520203 -10.546875 20.10351562 C-10.54423213 18.08853667 -10.53910799 16.07355912 -10.53125 14.05859375 C-10.54339539 12.63660927 -10.54339539 12.63660927 -10.55578613 11.18589783 C-10.46259641 4.6486612 -10.46259641 4.6486612 -8.15112305 1.4074707 C-5.1467101 -0.55830397 -3.52099944 -0.66723165 0 0 Z " fill="#91B835" transform="translate(51,53)"/>
<path d="M0 0 C2.68811344 2.79305998 3.37806778 4.7838792 3.40405273 8.61328125 C3.41673691 9.52102295 3.42942108 10.42876465 3.44248962 11.36401367 C3.43955399 12.33701416 3.43661835 13.31001465 3.43359375 14.3125 C3.4388356 15.31837158 3.44407745 16.32424316 3.44947815 17.3605957 C3.45589648 19.48550494 3.45456382 21.61044971 3.44604492 23.73535156 C3.4375307 26.98827243 3.46630675 30.23943992 3.49804688 33.4921875 C3.49965886 35.55729114 3.49908141 37.62239789 3.49609375 39.6875 C3.51294472 41.14700073 3.51294472 41.14700073 3.53013611 42.63598633 C3.46066733 49.35808848 3.46066733 49.35808848 1.12475586 52.61303711 C-1.56835206 54.37099943 -2.84418284 54.63411279 -6 54 C-9.51463937 51.18165711 -12.19856867 47.51311849 -15 44 C-15.495 43.38979004 -15.99 42.77958008 -16.5 42.15087891 C-18.06649644 40.20205943 -19.5999565 38.2313808 -21.125 36.25 C-21.62273926 35.62472412 -22.12047852 34.99944824 -22.63330078 34.35522461 C-24.84193848 31.39925923 -25.9689609 29.72800805 -26.12890625 25.9765625 C-24.64714049 22.06962301 -22.48386129 19.30169489 -19.8125 16.125 C-18.80916277 14.89512892 -17.80655383 13.66466333 -16.8046875 12.43359375 C-16.3209668 11.84562012 -15.83724609 11.25764648 -15.33886719 10.65185547 C-13.16017122 7.96384363 -11.13953194 5.16451181 -9.12109375 2.35546875 C-6.62048903 -0.66791048 -3.67061901 -0.37455296 0 0 Z " fill="#93BA35" transform="translate(116,53)"/>
<path d="M0 0 C1.50880737 -0.00218285 1.50880737 -0.00218285 3.0480957 -0.00440979 C5.17304381 -0.00275109 7.29800397 0.00880687 9.42285156 0.02954102 C12.67564925 0.05848829 15.9268165 0.05015039 19.1796875 0.03710938 C21.24479959 0.04334708 23.30990653 0.05173827 25.375 0.0625 C26.34800049 0.05956436 27.32100098 0.05662872 28.32348633 0.05360413 C29.23122803 0.0662883 30.13896973 0.07897247 31.07421875 0.09204102 C31.87045654 0.097444 32.66669434 0.10284698 33.48706055 0.1084137 C36.26395406 0.59765516 37.65213389 1.56838087 39.6875 3.49609375 C40.25 6.37109375 40.25 6.37109375 39.6875 9.49609375 C35.57297304 14.16356109 30.62649171 17.90859333 25.75 21.74609375 C24.96431641 22.38289063 24.17863281 23.0196875 23.36914062 23.67578125 C15.60189488 29.78558125 15.60189488 29.78558125 10.6875 29.49609375 C7.8984375 27.94140625 7.8984375 27.94140625 5.0625 25.62109375 C4.02312537 24.78132535 2.9827286 23.94282074 1.94140625 23.10546875 C1.41047363 22.67169922 0.87954102 22.23792969 0.33251953 21.79101562 C-1.31032469 20.4978061 -2.99298597 19.31061801 -4.72265625 18.13671875 C-5.80417969 17.3890625 -6.88570312 16.64140625 -8 15.87109375 C-8.99386719 15.19820312 -9.98773438 14.5253125 -11.01171875 13.83203125 C-13.3125 11.49609375 -13.3125 11.49609375 -14.39453125 7.97265625 C-14.3125 4.49609375 -14.3125 4.49609375 -12.9519043 2.30981445 C-8.84648858 -0.51130601 -4.86897875 -0.0562158 0 0 Z " fill="#93BA35" transform="translate(67.3125,40.50390625)"/>
<path d="M0 0 C2.30469514 1.42727313 4.19832138 2.77665232 6.25 4.5 C7.08772949 5.17470337 7.08772949 5.17470337 7.94238281 5.86303711 C9.0836573 6.78402286 10.22009337 7.71103718 11.3515625 8.64404297 C13.79092296 10.65059036 16.27358031 12.60200108 18.75 14.5625 C22.84552846 17.84552846 22.84552846 17.84552846 24 19 C24.46628896 24.36232306 24.46628896 24.36232306 22.77807617 26.67105103 C20.48396627 28.38568792 19.14935406 28.38006068 16.30078125 28.38818359 C14.87415161 28.40236832 14.87415161 28.40236832 13.41870117 28.4168396 C12.39365479 28.41076691 11.3686084 28.40469421 10.3125 28.3984375 C9.25844971 28.40130768 8.20439941 28.40417786 7.1184082 28.40713501 C4.88915469 28.40917713 2.65988333 28.40363698 0.43066406 28.39111328 C-2.98673468 28.37506231 -6.40295065 28.39095759 -9.8203125 28.41015625 C-11.98437762 28.40817385 -14.148442 28.40433023 -16.3125 28.3984375 C-17.33754639 28.40451019 -18.36259277 28.41058289 -19.41870117 28.4168396 C-20.3697876 28.40738312 -21.32087402 28.39792664 -22.30078125 28.38818359 C-23.13778564 28.38579681 -23.97479004 28.38341003 -24.8371582 28.38095093 C-27.50978777 27.91020882 -28.3895031 27.15355944 -30 25 C-30.515625 22.11328125 -30.515625 22.11328125 -30 19 C-27.796875 16.54296875 -27.796875 16.54296875 -24.75 14.1875 C-24.21294434 13.76807129 -23.67588867 13.34864258 -23.12255859 12.91650391 C-21.99447644 12.03998243 -20.86003511 11.17159059 -19.71972656 10.31103516 C-18.03208835 9.02446259 -16.38552293 7.69797502 -14.7421875 6.35546875 C-13.19917969 5.12763672 -13.19917969 5.12763672 -11.625 3.875 C-10.68914062 3.12992187 -9.75328125 2.38484375 -8.7890625 1.6171875 C-5.42400063 -0.33398283 -3.82946671 -0.65957396 0 0 Z " fill="#94BC36" transform="translate(83,89)"/>
</svg>
